<svg xmlns="http://www.w3.org/2000/svg" xmlns:xlink="http://www.w3.org/1999/xlink" width="500" zoomAndPan="magnify" viewBox="0 0 375 374.999991" height="500" preserveAspectRatio="xMidYMid meet" version="1.0"><defs><clipPath id="dc62eb3765"><path d="M 52.058594 85.582031 L 322.808594 85.582031 L 322.808594 289.582031 L 52.058594 289.582031 Z M 52.058594 85.582031 " clip-rule="nonzero"/></clipPath><clipPath id="18c0f6b13a"><path d="M 262.59375 109.132812 L 262.792969 138.742188 L 274.625 129.6875 L 274.625 85.707031 L 187.367188 147.886719 L 100.667969 85.707031 L 100.667969 277.414062 L 64.078125 277.414062 L 64.078125 134.15625 L 89.453125 152.566406 L 89.664062 137.859375 L 52.058594 110.363281 L 52.058594 289.460938 L 112.714844 289.460938 L 112.714844 109.1875 L 187.339844 162.757812 Z M 187.394531 207.167969 L 124.628906 161.378906 L 124.628906 175.730469 L 187.246094 222.023438 L 310.710938 133.953125 L 310.710938 277.414062 L 274.625 277.414062 L 274.625 175.207031 L 262.605469 184.152344 L 262.605469 289.460938 L 322.820312 289.460938 L 322.820312 110.566406 Z M 187.394531 207.167969 " clip-rule="nonzero"/></clipPath></defs><g clip-path="url(#dc62eb3765)"><g clip-path="url(#18c0f6b13a)"><path fill="#bbcccd" d="M 52.058594 85.707031 L 52.058594 289.460938 L 322.808594 289.460938 L 322.808594 85.707031 Z M 52.058594 85.707031 " fill-opacity="1" fill-rule="nonzero"/></g></g></svg>